<svg width="40" height="40" viewBox="0 0 40 40" fill="none" xmlns="http://www.w3.org/2000/svg">
<g clip-path="url(#clip0)">
<path fill-rule="evenodd" clip-rule="evenodd" d="M39.4014 24.8382C36.7298 35.5525 25.8768 42.0731 15.16 39.4012C4.44763 36.73 -2.07368 25.8776 0.599102 15.164C3.26939 4.44845 14.1224 -2.07273 24.8361 0.598491C35.5522 3.26971 42.0729 14.1234 39.4014 24.8382ZM28.8159 17.1508C29.214 14.4896 27.1876 13.059 24.4166 12.1046L25.3155 8.49966L23.1209 7.95279L22.2458 11.4628C21.6688 11.319 21.0763 11.1834 20.4875 11.049L21.3688 7.51592L19.1755 6.96905L18.276 10.5728C17.7984 10.464 17.3296 10.3565 16.8746 10.2434L16.8771 10.2321L13.8505 9.47652L13.2667 11.8203C13.2667 11.8203 14.895 12.1934 14.8606 12.2165C15.7495 12.4384 15.9101 13.0265 15.8832 13.4927L14.8594 17.5996C14.9206 17.6152 15 17.6377 15.0875 17.6727C15.0144 17.6546 14.9363 17.6346 14.8556 17.6152L13.4205 23.3683C13.3117 23.6383 13.036 24.0432 12.4147 23.8895C12.4366 23.9214 10.8196 23.4914 10.8196 23.4914L9.73007 26.0032L12.586 26.7151C13.1173 26.8482 13.638 26.9876 14.1505 27.1188L13.2423 30.7651L15.4344 31.3119L16.3339 27.7045C16.9327 27.867 17.514 28.017 18.0828 28.1582L17.1865 31.7488L19.3811 32.2957L20.2893 28.6563C24.0316 29.3644 26.8456 29.0788 28.0301 25.6945C28.9846 22.9695 27.9826 21.3977 26.0137 20.3727C27.4476 20.042 28.5277 19.0989 28.8159 17.1508ZM23.8016 24.1814C23.1234 26.9063 18.5348 25.4332 17.0471 25.0639L18.2522 20.2333C19.7399 20.6045 24.5104 21.3395 23.8016 24.1814ZM24.4804 17.1114C23.8616 19.5902 20.0424 18.3308 18.8035 18.0221L19.8962 13.6409C21.135 13.9496 25.1248 14.5258 24.4804 17.1114Z" fill="#F7931A"/>
</g>
<defs>
<clipPath id="clip0">
<rect width="40" height="40" fill="white"/>
</clipPath>
</defs>
</svg>
