<svg width="40" height="40" viewBox="0 0 40 40" fill="none" xmlns="http://www.w3.org/2000/svg">
<path d="M0 20C0 8.95431 8.95431 0 20 0C31.0457 0 40 8.95431 40 20C40 31.0457 31.0457 40 20 40C8.95431 40 0 31.0457 0 20Z" fill="#DB1111"/>
<path fill-rule="evenodd" clip-rule="evenodd" d="M24.6428 12.7356L22.7217 8.06919C23.0951 7.9648 23.5089 7.97328 23.9449 8.13069C24.8935 8.47325 25.7797 9.03798 26.4923 9.76311C26.9623 10.2414 27.521 10.6377 28.1322 10.9264C29.0562 11.3628 29.8782 12.0089 30.5044 12.7811C30.8398 13.1947 30.97 13.6428 30.9412 14.0812L25.752 13.4628C25.7219 13.2343 25.5992 13.018 25.3933 12.8719C25.1683 12.7122 24.8922 12.6708 24.6428 12.7356ZM24.1848 13.0858C23.9344 13.4223 23.968 13.8756 24.2413 14.1732L21.1165 18.3724C21.018 18.2508 20.9582 18.0964 20.9584 17.9246L20.9699 10.8482C20.9717 9.7452 21.5174 8.70927 22.3434 8.2586L24.2839 12.9738C24.2483 13.0078 24.2151 13.0451 24.1848 13.0858ZM28.834 16.4291C29.8406 16.1109 30.643 15.3675 30.8942 14.531L25.7281 13.9151C25.7012 13.9809 25.6656 14.0446 25.621 14.1046C25.3853 14.4214 24.971 14.5365 24.6109 14.4139L21.483 18.6172C21.6211 18.6585 21.7741 18.6609 21.926 18.6129L28.834 16.4291ZM27.2038 22.0923C27.4092 21.7465 27.8404 21.5752 28.2455 21.7038C28.2945 21.7193 28.3411 21.7386 28.3852 21.7612L32.3786 18.5022C31.6844 17.8745 30.5067 17.6879 29.4317 18.0271L22.5351 20.2031C22.3677 20.256 22.2358 20.3593 22.1477 20.4883L27.2038 22.0923ZM28.9111 28.3805C28.0187 28.4058 27.0466 27.8904 26.4256 27.054L22.1637 21.3142C22.07 21.1881 22.025 21.0453 22.0226 20.9043L27.0836 22.5098C27.0754 22.882 27.3156 23.2312 27.6969 23.3522C27.7692 23.3751 27.8422 23.3885 27.9147 23.3931L28.9111 28.3805ZM20.8934 27.8836C20.8934 27.4677 20.5933 27.1202 20.193 27.0363L20.193 21.8458C20.3459 21.8876 20.4873 21.9782 20.5905 22.1174L24.8413 27.8489C25.5039 28.7423 25.6861 29.8935 25.2892 30.7321L20.8806 28.0311C20.889 27.9831 20.8934 27.9339 20.8934 27.8836ZM14.5953 30.5649C14.2949 29.744 14.4966 28.6821 15.1193 27.847L19.3934 22.1158C19.4873 21.9899 19.6126 21.904 19.7492 21.8581L19.7492 27.0537C19.384 27.1612 19.1181 27.4921 19.1181 27.8836C19.1181 27.9577 19.1277 28.0297 19.1456 28.0984L14.5953 30.5649ZM20.7337 28.4297L25.0972 31.1024C24.8579 31.4012 24.518 31.6318 24.0705 31.7547C23.0969 32.0219 22.0399 32.0736 21.0269 31.8959C20.3587 31.7787 19.6681 31.7787 18.9999 31.8959C17.9896 32.0732 16.9356 32.0222 15.9641 31.7568C15.4438 31.6147 15.0687 31.3269 14.8281 30.9557L19.3985 28.478C19.5604 28.6456 19.7899 28.7502 20.0445 28.7502C20.3226 28.7502 20.5709 28.6253 20.7337 28.4297ZM32.68 18.7949L28.7282 22.0208C28.8683 22.2323 28.9133 22.5015 28.8274 22.7598C28.7487 22.9962 28.5759 23.177 28.3626 23.2755L29.3638 28.2851C29.7997 28.1763 30.1959 27.917 30.4952 27.4778C31.0539 26.6577 31.4292 25.6947 31.5688 24.7018C31.6611 24.0451 31.8745 23.4039 32.1952 22.8196C32.6813 21.9339 32.9576 20.9365 32.9981 19.9497C33.0167 19.4963 32.8971 19.1094 32.68 18.7949ZM9.36788 14.531C9.61908 15.3675 10.4215 16.1109 11.4281 16.4291L18.3362 18.6129C18.488 18.6609 18.641 18.6585 18.7791 18.6172L15.6512 14.4139C15.2912 14.5365 14.8768 14.4214 14.6411 14.1046C14.5965 14.0446 14.5609 13.9809 14.534 13.9151L9.36788 14.531ZM16.0208 14.1732C16.2941 13.8756 16.3277 13.4223 16.0773 13.0858C16.047 13.0451 16.0138 13.0078 15.9782 12.9738L17.9187 8.2586C18.7447 8.70927 19.2904 9.7452 19.2922 10.8482L19.3037 17.9246C19.3039 18.0964 19.2441 18.2508 19.1456 18.3724L16.0208 14.1732ZM17.5404 8.06919L15.6193 12.7356C15.3699 12.6708 15.0938 12.7122 14.8688 12.8719C14.6629 13.018 14.5402 13.2343 14.5101 13.4628L9.32093 14.0812C9.29215 13.6428 9.42233 13.1947 9.7577 12.7811C10.3839 12.0089 11.2059 11.3628 12.13 10.9264C12.7411 10.6377 13.2998 10.2414 13.7698 9.76311C14.4824 9.03798 15.3686 8.47325 16.3172 8.13069C16.7532 7.97328 17.167 7.9648 17.5404 8.06919ZM13.5744 27.054C12.9534 27.8904 11.9813 28.4058 11.0888 28.3805L12.0853 23.3931C12.1578 23.3885 12.2308 23.3751 12.3031 23.3522C12.6844 23.2312 12.9246 22.882 12.9164 22.5098L17.9774 20.9043C17.975 21.0453 17.93 21.1881 17.8363 21.3142L13.5744 27.054ZM11.7545 21.7037C12.1596 21.5752 12.5908 21.7465 12.7962 22.0923L17.8523 20.4883C17.7642 20.3593 17.6323 20.2559 17.4649 20.2031L10.5683 18.0271C9.49332 17.6879 8.31562 17.8745 7.62138 18.5022L11.6148 21.7612C11.6589 21.7386 11.7055 21.7193 11.7545 21.7037ZM11.2718 22.0208L7.31998 18.7949C7.1029 19.1094 6.98327 19.4963 7.00189 19.9497C7.04243 20.9365 7.31868 21.9339 7.80481 22.8196C8.12546 23.4039 8.33888 24.0451 8.43118 24.7018C8.57075 25.6947 8.94608 26.6577 9.50482 27.4778C9.80407 27.917 10.2003 28.1763 10.6362 28.2851L11.6374 23.2755C11.4241 23.177 11.2513 22.9962 11.1726 22.7598C11.0867 22.5015 11.1317 22.2323 11.2718 22.0208Z" fill="white" fill-opacity="0.9"/>
</svg>
