<svg width="40" height="40" viewBox="0 0 40 40" fill="none" xmlns="http://www.w3.org/2000/svg">
<mask id="mask0" mask-type="alpha" maskUnits="userSpaceOnUse" x="0" y="0" width="40" height="40">
<path fill-rule="evenodd" clip-rule="evenodd" d="M0 0H40V40H0V0Z" fill="white"/>
</mask>
<g mask="url(#mask0)">
<path fill-rule="evenodd" clip-rule="evenodd" d="M20 39.9989C9 39.9989 0 30.9989 0 19.8989C0.1 8.89887 9 -0.101128 20.1 -0.00112777C31.1 0.0988722 40 8.99887 40 20.1989C39.9 31.0989 31 39.9989 20 39.9989Z" fill="#DB1111"/>
</g>
<path d="M31.3872 16.4969C30.3284 15.5193 28.8637 14.0263 27.6708 12.9675L27.6002 12.9181C27.4827 12.8238 27.3503 12.7498 27.2084 12.6993C24.3319 12.1628 10.9449 9.66043 10.6837 9.69219C10.6105 9.70244 10.5406 9.72898 10.479 9.76984L10.4119 9.82278C10.3294 9.90664 10.2666 10.008 10.2284 10.1193L10.2108 10.1651V10.4157V10.4545C11.7178 14.651 17.6684 28.3981 18.8402 31.624C18.9108 31.8428 19.0449 32.2593 19.2955 32.2804H19.3519C19.486 32.2804 20.0578 31.5251 20.0578 31.5251C20.0578 31.5251 30.279 19.1298 31.3131 17.8098C31.447 17.6472 31.5651 17.4723 31.666 17.2875C31.6918 17.1429 31.6797 16.994 31.6308 16.8555C31.5819 16.7169 31.498 16.5934 31.3872 16.4969ZM22.6802 17.9404L27.0425 14.3228L29.6013 16.6804L22.6802 17.9404ZM20.986 17.704L13.4755 11.5487L25.6272 13.7898L20.986 17.704ZM21.6637 19.3169L29.3508 18.0781L20.5625 28.6663L21.6637 19.3169ZM12.4555 12.1628L20.3578 18.8687L19.2143 28.6734L12.4555 12.1628Z" fill="white"/>
</svg>
