<svg width="40" height="40" viewBox="0 0 40 40" fill="none" xmlns="http://www.w3.org/2000/svg">
<mask id="mask0" mask-type="alpha" maskUnits="userSpaceOnUse" x="0" y="0" width="40" height="40">
<path fill-rule="evenodd" clip-rule="evenodd" d="M0 0H40V40H0V0Z" fill="white"/>
</mask>
<g mask="url(#mask0)">
<path fill-rule="evenodd" clip-rule="evenodd" d="M20 39.9989C9 39.9989 0 30.9989 0 19.8989C0.1 8.89887 9 -0.101128 20.1 -0.00112777C31.1 0.0988722 40 8.99887 40 20.1989C39.9 31.0989 31 39.9989 20 39.9989Z" fill="white"/>
</g>
<path d="M20.1341 7C14.5466 7.02181 10.0224 11.4189 10 16.8495C10 17.937 10.1806 19.0173 10.5344 20.0488C10.7984 20.751 11.5818 21.1291 12.3171 20.912C13.0278 20.6471 13.4051 19.892 13.1785 19.1856C12.8782 18.3816 12.7446 17.5288 12.7842 16.6749C12.906 12.7526 16.2759 9.66856 20.3115 9.78698C24.3472 9.90539 27.5204 13.1806 27.3986 17.1029C27.2842 20.7749 24.3088 23.7572 20.5349 23.9805C20.5349 23.9805 19.1124 24.0646 18.4049 24.1488C18.1441 24.1851 17.8854 24.235 17.63 24.2984C17.5937 24.3347 17.5349 24.3347 17.4975 24.2994L17.4964 24.2984C17.4707 24.2662 17.4707 24.2205 17.4964 24.1883L17.7166 23.0207L19.0525 17.1808C19.2128 16.4516 18.7351 15.7338 17.9848 15.578C17.2345 15.4222 16.496 15.8865 16.3357 16.6157C16.3357 16.6157 13.1582 30.91 13.1582 31.0399C12.9765 31.7348 13.4083 32.4411 14.1233 32.6177C14.1308 32.6198 14.1394 32.6219 14.1469 32.6229H14.2206C14.9345 32.8026 15.6634 32.3851 15.8473 31.6912C15.8505 31.6797 15.8537 31.6683 15.8558 31.6559C15.8537 31.634 15.8537 31.6122 15.8558 31.5914C15.8954 31.4232 16.2962 29.5212 16.2962 29.5212C16.5997 28.0857 17.7903 26.9856 19.2802 26.7633C19.5869 26.7176 20.8759 26.6335 20.8759 26.6335C26.442 26.0944 30.5045 21.2714 29.9487 15.8616C29.4421 10.9275 25.2365 7.12881 20.1341 7Z" fill="#1E1E1E"/>
<path d="M20.7488 29.7101C19.8349 29.5252 18.9414 30.0955 18.7512 30.9826C18.7491 30.9909 18.748 30.9992 18.7459 31.0075C18.5481 31.8894 19.1231 32.7609 20.0316 32.9531C20.0327 32.9531 20.0337 32.9531 20.0348 32.9541H20.0818C20.9711 33.1629 21.8656 32.6311 22.0794 31.7679C22.0815 31.7616 22.0826 31.7544 22.0847 31.7481V31.6578C22.2418 30.7665 21.6561 29.9116 20.7488 29.7101Z" fill="#E6007A"/>
</svg>
