<svg width="40" height="40" viewBox="0 0 40 40" fill="none" xmlns="http://www.w3.org/2000/svg">
<mask id="mask0" mask-type="alpha" maskUnits="userSpaceOnUse" x="0" y="0" width="40" height="40">
<path fill-rule="evenodd" clip-rule="evenodd" d="M0 0H40V40H0V0Z" fill="white"/>
</mask>
<g mask="url(#mask0)">
<path fill-rule="evenodd" clip-rule="evenodd" d="M20 39.9989C9 39.9989 0 30.9989 0 19.8989C0.1 8.89887 9 -0.101128 20.1 -0.00112777C31.1 0.0988722 40 8.99887 40 20.1989C39.9 31.0989 31 39.9989 20 39.9989Z" fill="#34CDC4"/>
<path fill-rule="evenodd" clip-rule="evenodd" d="M21.9001 17.6003L21.3001 20.8003L27.0001 21.6003L26.6001 23.1003L21.0001 22.3003C20.6001 23.6003 20.4001 25.0003 19.9001 26.2003C19.4001 27.6003 18.9001 29.0003 18.3001 30.3003C17.5001 32.0003 16.1001 33.2003 14.2001 33.5003C13.1001 33.7003 11.9001 33.6003 11.0001 32.9003C10.7001 32.7003 10.4001 32.3003 10.4001 32.0003C10.4001 31.6003 10.6001 31.1003 10.9001 30.9003C11.1001 30.8003 11.6001 30.9003 11.9001 31.0003C12.2001 31.3003 12.5001 31.7003 12.7001 32.1003C13.3001 32.9003 14.1001 33.0003 14.9001 32.4003C15.8001 31.6003 16.3001 30.5003 16.6001 29.4003C17.2001 27.0003 17.8001 24.7003 18.3001 22.3003V21.9003L13.0001 21.1003L13.2001 19.6003L18.7001 20.4003L19.4001 17.3003L13.7001 16.4003L13.9001 14.8003L19.8001 15.6003C20.0001 15.0003 20.1001 14.5003 20.3001 14.0003C20.8001 12.2003 21.3001 10.4003 22.5001 8.80032C23.7001 7.20032 25.1001 6.20032 27.2001 6.30032C28.1001 6.30032 29.0001 6.60032 29.6001 7.30032C29.7001 7.40032 29.9001 7.60032 29.9001 7.80032C29.9001 8.20032 29.9001 8.70032 29.6001 9.00032C29.2001 9.30032 28.7001 9.20032 28.3001 8.80032C28.0001 8.50032 27.8001 8.20032 27.5001 7.90032C26.9001 7.10032 26.0001 7.00032 25.3001 7.70032C24.8001 8.20032 24.3001 8.90032 24.0001 9.60032C23.3001 11.7003 22.8001 13.9003 22.1001 16.1003L27.6001 16.9003L27.2001 18.4003L21.9001 17.6003Z" fill="white"/>
</g>
</svg>
