<svg width="24" height="24" viewBox="0 0 24 24" fill="none" xmlns="http://www.w3.org/2000/svg">
<mask id="mask0" mask-type="alpha" maskUnits="userSpaceOnUse" x="0" y="0" width="24" height="24">
<path fill-rule="evenodd" clip-rule="evenodd" d="M0 0H24V24H0V0Z" fill="white"/>
</mask>
<g mask="url(#mask0)">
<path d="M6.53033 5.46967C6.23744 5.17678 5.76256 5.17678 5.46967 5.46967C5.17678 5.76256 5.17678 6.23744 5.46967 6.53033L6.53033 5.46967ZM17.4697 18.5303C17.7626 18.8232 18.2374 18.8232 18.5303 18.5303C18.8232 18.2374 18.8232 17.7626 18.5303 17.4697L17.4697 18.5303ZM5.46967 6.53033L17.4697 18.5303L18.5303 17.4697L6.53033 5.46967L5.46967 6.53033Z" fill="#282828"/>
<path d="M18.5303 6.53033C18.8232 6.23744 18.8232 5.76256 18.5303 5.46967C18.2374 5.17678 17.7626 5.17678 17.4697 5.46967L18.5303 6.53033ZM5.46967 17.4697C5.17678 17.7626 5.17678 18.2374 5.46967 18.5303C5.76256 18.8232 6.23744 18.8232 6.53033 18.5303L5.46967 17.4697ZM17.4697 5.46967L5.46967 17.4697L6.53033 18.5303L18.5303 6.53033L17.4697 5.46967Z" fill="#282828"/>
</g>
</svg>
