<svg width="24" height="24" viewBox="0 0 24 24" fill="none" xmlns="http://www.w3.org/2000/svg">
<path fill-rule="evenodd" clip-rule="evenodd" d="M8.87807 12C8.87807 13.6 10.2751 14.9018 12 14.9018C13.7171 14.9018 15.1142 13.6 15.1142 12C15.1142 10.3927 13.7171 9.09091 12 9.09091C10.2751 9.09091 8.87807 10.3927 8.87807 12ZM16.5893 7.53455C17.9551 8.52364 19.118 9.97091 19.9532 11.7818C20.0156 11.92 20.0156 12.08 19.9532 12.2109C18.2829 15.8327 15.3093 18 12 18H11.9922C8.69073 18 5.71707 15.8327 4.04683 12.2109C3.98439 12.08 3.98439 11.92 4.04683 11.7818C5.71707 8.16 8.69073 6 11.9922 6H12C13.6546 6 15.2234 6.53818 16.5893 7.53455ZM12.004 14C13.1022 14 14 13.1022 14 12.004C14 10.8978 13.1022 10 12.004 10C11.9078 10 11.8116 10.008 11.7234 10.024C11.6914 10.9058 10.9699 11.6112 10.0802 11.6112H10.0401C10.016 11.7395 10 11.8677 10 12.004C10 13.1022 10.8978 14 12.004 14Z" fill="#999CAD"/>
</svg>
