<svg width="24" height="24" viewBox="0 0 24 24" fill="none" xmlns="http://www.w3.org/2000/svg">
<path fill-rule="evenodd" clip-rule="evenodd" d="M10.2426 14.2959C10.7422 14.5948 11.351 14.7754 11.9989 14.7754C13.7162 14.7754 15.1135 13.5315 15.1135 12.0026C15.1135 11.4258 14.9105 10.8837 14.5749 10.439L13.724 11.1965C13.8645 11.4328 13.9426 11.7107 13.9426 12.0026C13.9426 12.9547 13.0683 13.733 11.9989 13.733C11.6711 13.733 11.3588 13.6635 11.0934 13.5384L10.2426 14.2959ZM17.143 8.1526C18.2749 9.06993 19.235 10.3069 19.9532 11.7941C20.0156 11.9262 20.0156 12.0791 19.9532 12.2041C18.2827 15.665 15.3086 17.7359 11.9989 17.7359H11.9911C10.4846 17.7359 9.04049 17.2981 7.76813 16.4989L6.25378 17.8471C6.13669 17.9514 5.98838 18 5.84007 18C5.69176 18 5.53564 17.9514 5.42636 17.8471C5.23121 17.6734 5.19999 17.3954 5.3561 17.1939L5.37952 17.1661L16.9245 6.8878C16.9401 6.8739 16.9557 6.86 16.9635 6.8461C16.9791 6.8322 16.9947 6.8183 17.0025 6.8044L17.7363 6.15115C17.9705 5.94962 18.3373 5.94962 18.5637 6.15115C18.7979 6.35269 18.7979 6.68626 18.5637 6.8878L17.143 8.1526ZM8.87869 12.0053C8.87869 12.186 8.90211 12.3667 8.93333 12.5335L6.04515 15.1048C5.26456 14.2986 4.58544 13.3257 4.04684 12.2069C3.98439 12.0818 3.98439 11.9289 4.04684 11.7968C5.7173 8.336 8.69135 6.27201 11.9932 6.27201H12.0011C13.1173 6.27201 14.2023 6.50829 15.2015 6.95306L12.5943 9.27418C12.407 9.24638 12.204 9.22553 12.0011 9.22553C10.2759 9.22553 8.87869 10.4695 8.87869 12.0053Z" fill="#999CAD"/>
</svg>
