<svg width="116" height="108" viewBox="0 0 116 108" fill="none" xmlns="http://www.w3.org/2000/svg">
<path d="M35.2849 101.774C34.0225 98.24 34.87 93.6687 37.4874 90.074L55.4508 65.4032C55.8455 64.861 56.3718 64.4913 56.9459 64.2939L56.9459 86.6592C55.4114 87.1218 54.2938 88.5461 54.2938 90.2315C54.2938 90.5507 54.3339 90.8605 54.4093 91.1563L35.2849 101.774Z" fill="#18C9BD"/>
<path d="M61.7549 90.2327C61.7549 88.4424 60.4937 86.9466 58.8113 86.5854L58.8113 64.2419C59.4539 64.4222 60.0482 64.8119 60.482 65.411L78.3476 90.0832C81.1324 93.9289 81.8982 98.8846 80.23 102.495L61.7011 90.8674C61.7365 90.6611 61.7549 90.4491 61.7549 90.2327Z" fill="#18C9BD"/>
<path d="M79.423 104.089L61.0836 92.5836C60.3997 93.4253 59.3562 93.963 58.1871 93.963C57.1172 93.963 56.1526 93.5127 55.4724 92.7913L36.2634 103.457C37.2747 105.055 38.8511 106.294 41.0379 106.906C45.1211 108.048 49.5508 108.267 53.797 107.504C56.6053 107 59.5078 107 62.3161 107.504C66.5737 108.269 71.0159 108.047 75.1082 106.896C76.9888 106.368 78.4174 105.375 79.423 104.089Z" fill="#18C9BD"/>
<path d="M95.4515 92.3714C91.7007 92.48 87.615 90.2614 85.0051 86.6613L67.0927 61.9534C66.699 61.4104 66.51 60.7957 66.4997 60.1887L87.7704 67.0999C87.7362 68.7023 88.7454 70.2053 90.3482 70.7261C90.6518 70.8248 90.9589 70.8824 91.2635 70.902L95.4515 92.3714Z" fill="#18C9BD"/>
<path d="M92.6552 63.6305C90.9525 63.0773 89.1402 63.8145 88.2768 65.303L67.0269 58.3984C67.3969 57.843 67.9512 57.3983 68.655 57.1708L97.6404 47.8037C102.158 46.3436 107.108 47.1467 110.026 49.8488L93.2422 63.8778C93.057 63.7804 92.861 63.6974 92.6552 63.6305Z" fill="#18C9BD"/>
<path d="M111.293 51.1088L94.6836 64.9953C95.2727 65.906 95.4617 67.0646 95.1004 68.1764C94.7698 69.1939 94.0435 69.9722 93.1471 70.3962L97.3549 91.9609C99.187 91.4928 100.852 90.3764 102.11 88.4857C104.458 84.9554 106.036 80.8102 106.622 76.5361C107.01 73.7094 107.907 70.9489 109.255 68.434C111.298 64.6212 112.459 60.3276 112.63 56.0801C112.708 54.1282 112.205 52.4626 111.293 51.1088Z" fill="#18C9BD"/>
<path d="M103.787 32.7552C102.731 36.356 99.3583 39.5561 95.1279 40.9258L66.0941 50.3263C65.4561 50.5329 64.813 50.5227 64.2325 50.3449L77.3785 32.251C78.8919 32.7787 80.6332 32.2833 81.6238 30.9199C81.8115 30.6616 81.9612 30.3874 82.074 30.1038L103.787 32.7552Z" fill="#18C9BD"/>
<path d="M75.5884 26.5332C74.5361 27.9816 74.6772 29.933 75.826 31.2142L62.6928 49.2904C62.2789 48.7669 62.0272 48.1022 62.0284 47.3626L62.0767 16.9012C62.0843 12.1531 64.3776 7.69381 67.8491 5.75381L76.005 26.0513C75.8551 26.1974 75.7156 26.3582 75.5884 26.5332Z" fill="#18C9BD"/>
<path d="M69.4391 4.93837L77.5135 25.0258C78.5616 24.7468 79.7219 24.9251 80.6677 25.6123C81.5332 26.2411 82.0489 27.1724 82.1752 28.1559L103.985 30.818C104.106 28.9309 103.559 27.002 102.149 25.2216C99.5172 21.8973 96.0624 19.1162 92.1788 17.2375C89.6103 15.995 87.262 14.2889 85.2867 12.2301C82.2918 9.1087 78.5672 6.67771 74.5802 5.20312C72.748 4.52549 71.0086 4.48902 69.4391 4.93837Z" fill="#18C9BD"/>
<path d="M13.3151 32.7548C14.3709 36.3556 17.7435 39.5557 21.9739 40.9254L51.0077 50.326C51.6458 50.5326 52.2888 50.5223 52.8693 50.3446L39.7233 32.2506C38.2099 32.7784 36.4686 32.283 35.478 30.9195C35.2903 30.6613 35.1407 30.387 35.0279 30.1034L13.3151 32.7548Z" fill="#18C9BD"/>
<path d="M41.5135 26.5332C42.5659 27.9816 42.4247 29.933 41.276 31.2142L54.4091 49.2904C54.823 48.7669 55.0747 48.1022 55.0735 47.3626L55.0252 16.9012C55.0177 12.1531 52.7243 7.69381 49.2528 5.75381L41.0969 26.0513C41.2468 26.1974 41.3863 26.3582 41.5135 26.5332Z" fill="#18C9BD"/>
<path d="M47.663 4.93837L39.5886 25.0258C38.5405 24.7468 37.3802 24.9251 36.4344 25.6123C35.5689 26.2411 35.0532 27.1724 34.9269 28.1559L13.1174 30.818C12.9964 28.9309 13.5435 27.002 14.9531 25.2216C17.5849 21.8973 21.0397 19.1162 24.9234 17.2375C27.4919 15.995 29.8401 14.2889 31.8155 12.2301C34.8103 9.1087 38.535 6.67771 42.5219 5.20312C44.3541 4.52549 46.0935 4.48902 47.663 4.93837Z" fill="#18C9BD"/>
<path d="M20.549 92.3714C24.2998 92.48 28.3854 90.2614 30.9954 86.6613L48.9078 61.9534C49.3014 61.4104 49.4904 60.7957 49.5007 60.1887L28.23 67.0999C28.2643 68.7023 27.255 70.2053 25.6522 70.7261C25.3486 70.8248 25.0415 70.8824 24.7369 70.902L20.549 92.3714Z" fill="#18C9BD"/>
<path d="M23.3452 63.6305C25.0479 63.0772 26.8602 63.8145 27.7237 65.3029L48.9736 58.3984C48.6035 57.843 48.0492 57.3982 47.3454 57.1708L18.36 47.8037C13.8419 46.3436 8.89222 47.1467 5.97442 49.8488L22.7582 63.8778C22.9434 63.7804 23.1394 63.6973 23.3452 63.6305Z" fill="#18C9BD"/>
<path d="M4.70774 51.1088L21.3169 64.9953C20.7277 65.906 20.5387 67.0646 20.9 68.1764C21.2306 69.1939 21.957 69.9722 22.8533 70.3962L18.6455 91.9609C16.8135 91.4928 15.148 90.3764 13.8903 88.4857C11.542 84.9554 9.96458 80.8102 9.37798 76.5361C8.99003 73.7094 8.09309 70.9489 6.74544 68.434C4.70227 64.6212 3.54123 60.3276 3.37087 56.0801C3.29257 54.1282 3.79539 52.4626 4.70774 51.1088Z" fill="#18C9BD"/>
</svg>
