<svg width="96" height="96" viewBox="0 0 96 96" fill="none" xmlns="http://www.w3.org/2000/svg">
<rect width="96" height="96" rx="48" fill="#F6F6F6"/>
<g clip-path="url(#clip0)">
<path d="M40.8652 44.6773C41.2759 44.6885 41.6847 44.6174 42.0675 44.4683C42.4503 44.3191 42.7994 44.0948 43.0942 43.8087C43.3891 43.5226 43.6237 43.1803 43.7842 42.8022C43.9448 42.424 44.0281 42.0175 44.0292 41.6066C44.0072 40.8126 43.6882 40.0557 43.1352 39.4855C42.5822 38.9152 41.8355 38.5731 41.0425 38.5267C40.6271 38.4951 40.2096 38.5482 39.8152 38.6827C39.4209 38.8172 39.058 39.0303 38.7484 39.3091C38.4388 39.5879 38.189 39.9266 38.014 40.3048C37.8391 40.6829 37.7428 41.0926 37.7307 41.5091C37.7187 41.9255 37.7913 42.3401 37.9442 42.7277C38.097 43.1153 38.3269 43.4678 38.6199 43.764C38.9129 44.0602 39.263 44.2938 39.6489 44.4508C40.0349 44.6078 40.4486 44.6849 40.8652 44.6773ZM57.8332 45.928C57.6966 45.5986 57.4751 45.3113 57.1913 45.0954C56.9075 44.8795 56.5715 44.7428 56.2176 44.6991C55.8637 44.6555 55.5045 44.7065 55.1767 44.8469C54.849 44.9874 54.5643 45.2123 54.3518 45.4986L50.6185 50.5853C50.3397 50.9674 49.9349 51.2388 49.4756 51.3515C49.0162 51.4642 48.5318 51.411 48.1078 51.2013L42.2092 48.2706C41.7787 48.0581 41.2864 48.0062 40.821 48.1242C40.3556 48.2423 39.9477 48.5226 39.6705 48.9146L35.8065 54.3C35.5916 54.6007 35.464 54.9549 35.4376 55.3235C35.4112 55.6922 35.4872 56.0609 35.6571 56.3892C35.827 56.7174 36.0842 56.9923 36.4005 57.1836C36.7167 57.3749 37.0796 57.4752 37.4492 57.4733H59.5505C59.8848 57.4772 60.2148 57.3976 60.5105 57.2415C60.8062 57.0855 61.0582 56.8581 61.2437 56.5799C61.4291 56.3017 61.5422 55.9816 61.5725 55.6486C61.6028 55.3157 61.5494 54.9804 61.4172 54.6733L57.8332 45.928Z" fill="#EB5757"/>
<path d="M73.7 64.8H70.9V35.8667C70.9 33.1438 69.8183 30.5324 67.893 28.607C65.9676 26.6817 63.3562 25.6 60.6333 25.6H31.7V22.8C31.7 22.0574 31.405 21.3452 30.8799 20.8201C30.3548 20.295 29.6426 20 28.9 20C28.1574 20 27.4452 20.295 26.9201 20.8201C26.395 21.3452 26.1 22.0574 26.1 22.8V25.6H23.3C22.5574 25.6 21.8452 25.895 21.3201 26.4201C20.795 26.9452 20.5 27.6574 20.5 28.4C20.5 29.1426 20.795 29.8548 21.3201 30.3799C21.8452 30.905 22.5574 31.2 23.3 31.2H26.1V60.1333C26.1 61.4816 26.3656 62.8166 26.8815 64.0622C27.3975 65.3078 28.1537 66.4396 29.107 67.393C30.0604 68.3463 31.1922 69.1025 32.4378 69.6185C33.6834 70.1344 35.0184 70.4 36.3667 70.4H65.3V73.2C65.3 73.9426 65.595 74.6548 66.1201 75.1799C66.6452 75.705 67.3574 76 68.1 76C68.8426 76 69.5548 75.705 70.0799 75.1799C70.605 74.6548 70.9 73.9426 70.9 73.2V70.4H73.7C74.4426 70.4 75.1548 70.105 75.6799 69.5799C76.205 69.0548 76.5 68.3426 76.5 67.6C76.5 66.8574 76.205 66.1452 75.6799 65.6201C75.1548 65.095 74.4426 64.8 73.7 64.8ZM65.3 64.8H36.3667C35.129 64.8 33.942 64.3083 33.0668 63.4332C32.1917 62.558 31.7 61.371 31.7 60.1333V31.2H60.6333C61.871 31.2 63.058 31.6917 63.9332 32.5668C64.8083 33.442 65.3 34.629 65.3 35.8667V64.8Z" fill="#EB5757"/>
</g>
<rect x="17.8498" y="74.2689" width="81.4633" height="7" rx="3.5" transform="rotate(-45 17.8498 74.2689)" fill="#EB5757" stroke="#F6F6F6" stroke-width="2"/>
<defs>
<clipPath id="clip0">
<rect width="56" height="56" fill="white" transform="translate(20.5 20)"/>
</clipPath>
</defs>
</svg>
