<svg width="24" height="24" viewBox="0 0 24 24" fill="none" xmlns="http://www.w3.org/2000/svg">
<path d="M17.9072 10.7444C19.5096 10.7444 20.8094 9.44548 20.8094 7.84314C20.8094 6.24081 19.5096 4.94189 17.9072 4.94189" stroke="#282828" stroke-width="1.5" stroke-linecap="round" stroke-linejoin="round"/>
<path d="M19.2415 13.8972C19.72 13.9302 20.1957 13.9981 20.6641 14.1035C21.315 14.2309 22.0978 14.4976 22.3765 15.0816C22.5543 15.4556 22.5543 15.891 22.3765 16.2659C22.0987 16.8498 21.315 17.1156 20.6641 17.2495" stroke="#282828" stroke-width="1.5" stroke-linecap="round" stroke-linejoin="round"/>
<path d="M6.60236 10.7444C5.00003 10.7444 3.7002 9.44548 3.7002 7.84314C3.7002 6.24081 5.00003 4.94189 6.60236 4.94189" stroke="#282828" stroke-width="1.5" stroke-linecap="round" stroke-linejoin="round"/>
<path d="M5.26815 13.8972C4.78965 13.9302 4.3139 13.9981 3.84548 14.1035C3.19465 14.2309 2.41181 14.4976 2.13406 15.0816C1.95531 15.4556 1.95531 15.891 2.13406 16.2659C2.4109 16.8498 3.19465 17.1156 3.84548 17.2495" stroke="#282828" stroke-width="1.5" stroke-linecap="round" stroke-linejoin="round"/>
<path fill-rule="evenodd" clip-rule="evenodd" d="M12.2501 14.522C15.497 14.522 18.2708 15.0133 18.2708 16.9796C18.2708 18.9449 15.5153 19.4546 12.2501 19.4546C9.00238 19.4546 6.22946 18.9632 6.22946 16.997C6.22946 15.0307 8.98496 14.522 12.2501 14.522Z" stroke="#282828" stroke-width="1.5" stroke-linecap="round" stroke-linejoin="round"/>
<path fill-rule="evenodd" clip-rule="evenodd" d="M12.2501 11.7174C10.1088 11.7174 8.39188 10.0005 8.39188 7.85825C8.39188 5.71692 10.1088 4 12.2501 4C14.3915 4 16.1084 5.71692 16.1084 7.85825C16.1084 10.0005 14.3915 11.7174 12.2501 11.7174Z" stroke="#282828" stroke-width="1.5" stroke-linecap="round" stroke-linejoin="round"/>
</svg>
