<svg width="266" height="240" viewBox="0 0 266 240" fill="none" xmlns="http://www.w3.org/2000/svg">
<path d="M264.77 170.373C261.756 157.123 252.303 148.815 248.056 136.045C244.494 125.404 245.248 113.87 243.193 102.816C239.22 81.5325 224.698 63.27 207.163 50.6373C189.627 38.0045 169.009 30.2464 148.597 23.2435C140.514 20.4972 132.294 17.8196 123.937 16.3092C119.69 15.4853 115.375 15.0734 111.06 15.0047C88.6608 14.7301 68.2483 26.4017 53.2472 42.3299C46.4659 49.5388 37.4926 59.6999 34.5472 69.3804C31.1223 80.5713 34.3417 93.3413 31.0538 104.876C28.4509 114.213 22.423 122.177 17.0802 130.21C5.0245 148.266 -4.63374 170.717 2.35308 191.245C8.44941 209.164 26.5329 221.042 45.2329 224.063C63.9329 227.083 82.9754 222.415 100.579 215.618C112.087 211.155 123.663 205.663 135.993 205.731C147.432 205.8 158.255 210.606 169.146 214.107C188.531 220.218 208.944 222.209 229.151 219.874C237.165 218.913 245.453 217.197 252.029 212.528C264.633 203.603 268.194 185.615 264.77 170.373Z" fill="#E4FFFD"/>
<path d="M100.027 172.026C80.3717 175.298 61.0004 181.335 42.2052 190.046C40.0702 191.037 37.6705 192.436 37 195.446C57.3746 199.09 77.961 199.804 98.4389 197.576C111.884 196.115 125.25 193.39 138.695 192.028C167.024 189.154 195.582 192.35 223.822 188.04C225.225 187.966 226.598 187.445 227.837 186.516C228.442 186.036 228.921 185.295 229.204 184.403C229.486 183.511 229.558 182.515 229.407 181.562C228.944 180.162 228.112 179.07 227.087 178.516C222.34 175.209 216.817 175.147 211.515 175.246C175.749 175.927 139.781 181.216 104.341 174.404" fill="#91E7ED"/>
<path d="M156.673 78.7577C141.639 71.7793 125.888 64.9251 109.341 65.3596C103.257 65.5192 97.2166 66.6719 91.1232 66.7074C80.9611 66.7528 71.0225 63.7176 62.6111 58C58.0654 73.7123 53.561 89.4365 49.0979 105.172C47.8686 109.508 46.2325 113.951 45.4189 118.384C44.0747 125.717 60.6213 129.379 65.9452 130.053C72.0827 130.834 78.3264 130.231 84.517 130.435C89.7835 130.477 94.9753 131.688 99.7193 133.981C104.336 136.34 109.713 137.643 114.63 139.497C126.737 144.045 139.507 147.956 152.384 146.794C165.26 145.633 178.331 138.326 182.903 126.205C183.991 123.323 184.575 120.273 185.556 117.338C188.086 109.934 196.116 100.278 187.661 94.1685C178.658 87.5981 166.755 83.4217 156.673 78.7577Z" fill="#11ECE5"/>
<path d="M145.238 80.1498C138.809 77.2148 132.397 74.1025 125.525 72.4443C109.067 68.4985 91.3975 73.2335 75.0366 68.8975C74.2644 70.6419 72.8329 72.0075 71.0568 72.6942C69.2808 73.3809 67.3055 73.3325 65.565 72.5596H65.5208C64.7691 75.5123 64.7868 79.0946 64.2031 82.2069C63.472 86.0611 62.6083 89.8887 61.6119 93.6897C59.6545 101.169 57.2023 108.51 54.2716 115.662C55.7397 115.511 56.9778 116.948 57.1723 118.42C57.2449 119.902 56.9406 121.379 56.288 122.711C56.1907 122.942 61.0194 124.396 61.4792 124.485C63.2416 124.698 65.0231 124.698 66.7855 124.485C70.6236 124.174 74.3557 123.066 78.1673 122.534C92.556 120.53 106.618 126.772 120.67 130.514C125.388 131.758 130.175 132.72 135.006 133.396C138.473 133.884 142.028 134.212 145.441 133.396C148.855 132.58 152.172 130.638 155.17 128.537C160.909 124.494 166.242 119.67 169.983 113.756C172.963 109.021 178.614 96.4473 173.043 91.8365C169.717 89.0877 163.43 87.935 159.423 86.2769C154.642 84.3261 149.913 82.2837 145.238 80.1498Z" fill="url(#paint0_linear)"/>
<path d="M140.86 82.535C124.942 77.9951 108.298 73.668 92.0254 76.7094C86.0293 77.8266 80.2455 79.9104 74.2407 80.9035C64.2055 82.5375 53.912 81.0909 44.7115 76.7537C42.6657 92.9921 40.667 109.231 38.7155 125.469C38.176 129.947 37.2563 134.584 37.1413 139.098C36.9556 146.546 53.8648 147.574 59.2506 147.406C65.4412 147.211 71.4903 145.633 77.6278 144.879C82.8361 144.063 88.1606 144.427 93.2104 145.943C98.1364 147.539 103.655 147.991 108.802 149.046C121.466 151.644 134.687 153.48 147.228 150.35C159.768 147.22 171.53 137.936 174.166 125.23C174.785 122.215 174.891 119.111 175.422 116.079C176.775 108.365 183.204 97.5734 173.892 92.865C163.916 87.8552 151.544 85.603 140.86 82.535Z" fill="#11ECE5"/>
<path d="M129.779 85.7182C122.969 83.8207 116.151 81.7547 109.111 81.1961C92.2376 79.8749 75.5053 87.3232 58.7022 85.6296C58.4582 86.5482 58.0354 87.4094 57.4581 88.1636C56.8808 88.9177 56.1604 89.5499 55.3384 90.0238C54.5165 90.4977 53.6091 90.8039 52.6686 90.9247C51.7282 91.0456 50.7731 90.9788 49.8585 90.7281C49.5755 93.7695 50.1504 97.2986 50.0531 100.482C49.9293 104.401 49.6728 108.329 49.2837 112.231C48.5177 119.925 47.2384 127.558 45.4543 135.081C46.887 134.7 48.3374 135.968 48.7531 137.351C49.046 138.808 48.9639 140.315 48.5143 141.731C48.4524 141.979 53.4491 142.662 53.9178 142.662C55.6793 142.608 57.428 142.343 59.1267 141.873C62.8765 140.986 66.3874 139.293 70.0664 138.167C83.9687 133.937 98.8262 137.901 113.277 139.355C118.131 139.844 123.009 140.045 127.887 139.958C131.424 139.887 134.962 139.665 138.198 138.362C141.586 137.014 144.389 134.584 147.042 132.039C152.074 127.145 156.602 121.585 159.37 115.121C161.572 109.987 165.207 96.6779 158.981 92.9537C155.267 90.7547 148.873 90.604 144.663 89.5931C139.675 88.3872 134.714 87.0956 129.779 85.7182Z" fill="url(#paint1_linear)"/>
<path d="M78.5211 137.182C78.1693 135.561 77.9094 133.921 77.7428 132.27C77.7692 130.639 77.9379 129.013 78.2469 127.411C79.0606 121.479 78.2469 115.458 77.8932 109.473C77.5394 103.488 77.5041 97.3074 79.7504 91.7389C80.5836 89.4312 82.0375 87.3995 83.9511 85.869C86.2328 84.202 89.1247 83.6611 91.9105 83.333C95.448 82.9163 99.1623 82.7655 102.523 84.0424C101.661 84.4973 100.901 85.1259 100.292 85.8888C99.6838 86.6517 99.2388 87.5325 98.9854 88.4759C98.5047 90.3808 98.3256 92.3497 98.4548 94.3104C98.6319 100.595 99.3569 106.853 100.622 113.011C101.868 119.138 103.602 125.611 101.506 131.499C100.33 134.779 98.0569 137.519 96.3323 140.552C95.1915 142.565 93.7853 145.047 91.4683 144.985C90.7465 144.905 90.0368 144.738 89.3546 144.489C87.6265 144.143 85.8473 144.143 84.1192 144.489C82.9695 144.648 80.4844 145.491 79.4408 144.87C77.6367 143.877 78.7953 138.965 78.5211 137.182Z" fill="url(#paint2_linear)"/>
<path d="M202.837 83.67H100.294C92.7432 83.67 86.6218 89.8074 86.6218 97.3784V170.274C86.6218 177.845 92.7432 183.982 100.294 183.982H202.837C210.388 183.982 216.509 177.845 216.509 170.274V97.3784C216.509 89.8074 210.388 83.67 202.837 83.67Z" fill="#11ECE5"/>
<g style="mix-blend-mode:overlay">
<path d="M202.837 83.67H100.294C92.7432 83.67 86.6218 89.8074 86.6218 97.3784V170.274C86.6218 177.845 92.7432 183.982 100.294 183.982H202.837C210.388 183.982 216.509 177.845 216.509 170.274V97.3784C216.509 89.8074 210.388 83.67 202.837 83.67Z" fill="url(#paint3_linear)"/>
</g>
<path opacity="0.5" d="M216.509 106.104H86.6218V163.881H216.509V106.104Z" fill="black" fill-opacity="0.36"/>
<path d="M213.989 128.236H163.615C158.331 128.236 154.046 132.531 154.046 137.83V145.216C154.046 150.515 158.331 154.81 163.615 154.81H213.989C219.274 154.81 223.558 150.515 223.558 145.216V137.83C223.558 132.531 219.274 128.236 213.989 128.236Z" fill="url(#paint4_linear)"/>
<path d="M215.404 120.752H165.03C159.746 120.752 155.461 125.047 155.461 130.346V137.732C155.461 143.031 159.746 147.326 165.03 147.326H215.404C220.689 147.326 224.973 143.031 224.973 137.732V130.346C224.973 125.047 220.689 120.752 215.404 120.752Z" fill="#11ECE5"/>
<path d="M168.665 142.662C173.535 142.662 177.482 138.704 177.482 133.822C177.482 128.939 173.535 124.981 168.665 124.981C163.795 124.981 159.848 128.939 159.848 133.822C159.848 138.704 163.795 142.662 168.665 142.662Z" fill="url(#paint5_linear)"/>
<path d="M55.5 186C65.7173 186 74 177.717 74 167.5C74 157.283 65.7173 149 55.5 149C45.2827 149 37 157.283 37 167.5C37 177.717 45.2827 186 55.5 186Z" fill="#FFDEA1"/>
<path d="M70.5927 167.282C70.5927 175.716 63.7555 182.553 55.3214 182.553C46.8872 182.553 40.05 175.716 40.05 167.282C40.05 158.847 46.8872 152.01 55.3214 152.01C63.7555 152.01 70.5927 158.847 70.5927 167.282Z" fill="#FFD077" stroke="url(#paint6_linear)"/>
<path fill-rule="evenodd" clip-rule="evenodd" d="M62.9582 165.442C63.2911 163.236 61.5967 162.05 59.2799 161.258L60.0314 158.269L58.1964 157.816L57.4648 160.726C56.9824 160.607 56.4869 160.494 55.9946 160.383L56.7315 157.453L54.8976 157L54.1455 159.988C53.7462 159.898 53.3542 159.809 52.9737 159.715L52.9758 159.706L50.4452 159.079L49.9571 161.022C49.9571 161.022 51.3185 161.332 51.2898 161.351C52.033 161.535 52.1673 162.023 52.1448 162.409L51.2888 165.814C51.34 165.827 51.4064 165.846 51.4795 165.875C51.4184 165.86 51.353 165.843 51.2856 165.827L50.0856 170.598C49.9947 170.822 49.7642 171.157 49.2447 171.03C49.263 171.056 47.911 170.7 47.911 170.7L47 172.783L49.3879 173.373C49.8322 173.483 50.2675 173.599 50.6961 173.708L49.9367 176.731L51.7696 177.184L52.5217 174.193C53.0223 174.328 53.5084 174.452 53.984 174.569L53.2345 177.547L55.0695 178L55.8289 174.982C58.9579 175.57 61.3108 175.333 62.3012 172.527C63.0993 170.267 62.2615 168.964 60.6152 168.114C61.8141 167.84 62.7172 167.058 62.9582 165.442ZM58.7656 171.272C58.1985 173.531 54.3619 172.31 53.118 172.004L54.1256 167.998C55.3695 168.306 59.3583 168.916 58.7656 171.272ZM59.3332 165.41C58.8158 167.465 55.6225 166.421 54.5866 166.165L55.5002 162.532C56.536 162.788 59.872 163.266 59.3332 165.41Z" fill="#DB993A"/>
<path d="M90 186C103.807 186 115 174.807 115 161C115 147.193 103.807 136 90 136C76.1929 136 65 147.193 65 161C65 174.807 76.1929 186 90 186Z" fill="#FFDEA1"/>
<path d="M110.571 160.705C110.571 172.199 101.253 181.518 89.7586 181.518C78.2641 181.518 68.946 172.199 68.946 160.705C68.946 149.21 78.2641 139.892 89.7586 139.892C101.253 139.892 110.571 149.21 110.571 160.705Z" fill="#FFD077" stroke="url(#paint7_linear)"/>
<path fill-rule="evenodd" clip-rule="evenodd" d="M94.7706 152.564L92.6625 147.45C93.0723 147.335 93.5264 147.345 94.0047 147.517C95.0457 147.893 96.0181 148.511 96.8 149.306C97.3157 149.83 97.9288 150.265 98.5994 150.581C99.6133 151.059 100.515 151.767 101.202 152.614C101.57 153.067 101.713 153.558 101.682 154.038L95.9876 153.361C95.9547 153.11 95.82 152.873 95.5941 152.713C95.3471 152.538 95.0442 152.493 94.7706 152.564ZM94.268 152.947C93.9932 153.316 94.0301 153.813 94.33 154.139L90.9012 158.741C90.7931 158.608 90.7274 158.438 90.7277 158.25L90.7403 150.495C90.7423 149.286 91.3411 148.151 92.2474 147.657L94.3768 152.825C94.3376 152.862 94.3012 152.903 94.268 152.947ZM99.3696 156.611C100.474 156.263 101.355 155.448 101.63 154.531L95.9614 153.856C95.932 153.928 95.8929 153.998 95.8439 154.064C95.5853 154.411 95.1306 154.537 94.7355 154.403L91.3033 159.009C91.4549 159.054 91.6228 159.057 91.7894 159.004L99.3696 156.611ZM97.5807 162.817C97.8061 162.439 98.2793 162.251 98.7238 162.392C98.7775 162.409 98.8287 162.43 98.8771 162.455L103.259 158.883C102.497 158.195 101.205 157.991 100.025 158.362L92.4578 160.747C92.274 160.805 92.1293 160.918 92.0327 161.06L97.5807 162.817ZM99.4542 169.709C98.4749 169.736 97.4082 169.171 96.7268 168.255L92.0502 161.965C91.9474 161.827 91.8981 161.67 91.8954 161.516L97.4488 163.275C97.4399 163.683 97.7033 164.066 98.1218 164.198C98.2011 164.223 98.2813 164.238 98.3608 164.243L99.4542 169.709ZM90.6563 169.164C90.6563 168.708 90.327 168.327 89.8878 168.236L89.8878 162.547C90.0556 162.593 90.2107 162.692 90.324 162.845L94.9884 169.126C95.7154 170.105 95.9153 171.367 95.4798 172.286L90.6423 169.326C90.6515 169.273 90.6563 169.219 90.6563 169.164ZM83.7455 172.102C83.4159 171.203 83.6372 170.039 84.3205 169.124L89.0104 162.843C89.1135 162.705 89.2509 162.611 89.4008 162.561L89.4008 168.255C89.0001 168.372 88.7084 168.735 88.7084 169.164C88.7084 169.245 88.7188 169.324 88.7385 169.399L83.7455 172.102ZM90.4811 169.763L95.2691 172.692C95.0066 173.019 94.6336 173.272 94.1426 173.406C93.0742 173.699 91.9144 173.756 90.8028 173.561C90.0696 173.433 89.3118 173.433 88.5786 173.561C87.4701 173.755 86.3135 173.699 85.2475 173.409C84.6765 173.253 84.265 172.937 84.0009 172.531L89.0161 169.815C89.1937 169.999 89.4455 170.114 89.7248 170.114C90.03 170.114 90.3025 169.977 90.4811 169.763ZM103.59 159.204L99.2534 162.739C99.4072 162.971 99.4566 163.266 99.3622 163.549C99.2759 163.808 99.0863 164.006 98.8523 164.114L99.9508 169.604C100.429 169.485 100.864 169.201 101.192 168.719C101.805 167.821 102.217 166.765 102.37 165.677C102.472 164.958 102.706 164.255 103.058 163.615C103.591 162.644 103.894 161.551 103.939 160.469C103.959 159.973 103.828 159.549 103.59 159.204ZM78.0095 154.531C78.2851 155.448 79.1656 156.263 80.2701 156.611L87.8503 159.004C88.0169 159.057 88.1848 159.054 88.3363 159.009L84.9041 154.403C84.509 154.537 84.0544 154.411 83.7958 154.064C83.7468 153.998 83.7077 153.928 83.6782 153.856L78.0095 154.531ZM85.3096 154.139C85.6096 153.813 85.6464 153.316 85.3717 152.947C85.3385 152.903 85.302 152.862 85.2629 152.825L87.3923 147.657C88.2986 148.151 88.8974 149.286 88.8993 150.495L88.9119 158.25C88.9122 158.438 88.8465 158.608 88.7385 158.741L85.3096 154.139ZM86.9772 147.45L84.8691 152.564C84.5955 152.493 84.2925 152.538 84.0456 152.713C83.8196 152.873 83.685 153.11 83.652 153.361L77.9579 154.038C77.9264 153.558 78.0692 153.067 78.4372 152.614C79.1243 151.767 80.0263 151.059 81.0403 150.581C81.7109 150.265 82.3239 149.83 82.8397 149.306C83.6216 148.511 84.594 147.893 85.6349 147.517C86.1133 147.345 86.5674 147.335 86.9772 147.45ZM82.6252 168.255C81.9438 169.171 80.8771 169.736 79.8979 169.709L80.9913 164.243C81.0708 164.238 81.151 164.223 81.2302 164.198C81.6487 164.066 81.9122 163.683 81.9033 163.275L87.4566 161.516C87.454 161.67 87.4046 161.827 87.3018 161.965L82.6252 168.255ZM80.6282 162.392C81.0728 162.251 81.5459 162.439 81.7714 162.817L87.3193 161.06C87.2227 160.918 87.078 160.805 86.8943 160.747L79.3267 158.362C78.1471 157.991 76.8548 158.195 76.093 158.883L80.475 162.455C80.5233 162.43 80.5745 162.409 80.6282 162.392ZM80.0986 162.739L75.7623 159.204C75.5241 159.549 75.3928 159.973 75.4133 160.469C75.4578 161.551 75.7609 162.644 76.2943 163.615C76.6462 164.255 76.8803 164.958 76.9816 165.677C77.1348 166.765 77.5466 167.821 78.1597 168.719C78.4881 169.201 78.9229 169.485 79.4012 169.604L80.4998 164.114C80.2658 164.006 80.0761 163.808 79.9898 163.549C79.8955 163.266 79.9448 162.971 80.0986 162.739Z" fill="#DB993A"/>
<defs>
<linearGradient id="paint0_linear" x1="36603.1" y1="-7613.66" x2="18500.1" y2="-31995" gradientUnits="userSpaceOnUse">
<stop offset="0.01"/>
<stop offset="0.13" stop-opacity="0.69"/>
<stop offset="0.25" stop-opacity="0.32"/>
<stop offset="1" stop-opacity="0"/>
</linearGradient>
<linearGradient id="paint1_linear" x1="29065.5" y1="-6887.89" x2="8665.7" y2="-27515.1" gradientUnits="userSpaceOnUse">
<stop offset="0.01"/>
<stop offset="0.13" stop-opacity="0.69"/>
<stop offset="0.25" stop-opacity="0.32"/>
<stop offset="1" stop-opacity="0"/>
</linearGradient>
<linearGradient id="paint2_linear" x1="5576.2" y1="7089.05" x2="99.4539" y2="8671.65" gradientUnits="userSpaceOnUse">
<stop offset="0.01"/>
<stop offset="0.13" stop-opacity="0.69"/>
<stop offset="0.25" stop-opacity="0.32"/>
<stop offset="1" stop-opacity="0"/>
</linearGradient>
<linearGradient id="paint3_linear" x1="20391.5" y1="-5995.59" x2="36716.1" y2="-28989" gradientUnits="userSpaceOnUse">
<stop offset="0.01"/>
<stop offset="0.13" stop-opacity="0.69"/>
<stop offset="0.25" stop-opacity="0.32"/>
<stop offset="1" stop-opacity="0"/>
</linearGradient>
<linearGradient id="paint4_linear" x1="18622.3" y1="-4855.6" x2="18674.6" y2="-1407.47" gradientUnits="userSpaceOnUse">
<stop offset="0.01"/>
<stop offset="0.13" stop-opacity="0.69"/>
<stop offset="0.25" stop-opacity="0.32"/>
<stop offset="1" stop-opacity="0"/>
</linearGradient>
<linearGradient id="paint5_linear" x1="4113.48" y1="-3107.49" x2="5080.03" y2="-914.294" gradientUnits="userSpaceOnUse">
<stop offset="0.01"/>
<stop offset="0.13" stop-opacity="0.69"/>
<stop offset="0.25" stop-opacity="0.32"/>
<stop offset="1" stop-opacity="0"/>
</linearGradient>
<linearGradient id="paint6_linear" x1="55.3214" y1="151.51" x2="55.3214" y2="183.053" gradientUnits="userSpaceOnUse">
<stop stop-color="#F9BA55"/>
<stop offset="1" stop-color="#F9BA55"/>
</linearGradient>
<linearGradient id="paint7_linear" x1="89.7586" y1="139.392" x2="89.7586" y2="182.018" gradientUnits="userSpaceOnUse">
<stop stop-color="#F9BA55"/>
<stop offset="1" stop-color="#F9BA55"/>
</linearGradient>
</defs>
</svg>
